<svg width="483" height="134" viewBox="0 0 483 134" fill="none" xmlns="http://www.w3.org/2000/svg">
<path d="M40.36 33.0249C47.6108 27.3615 56.5031 24.2031 65.7018 24.0239C74.9005 23.8446 83.9091 26.6543 91.375 32.0309C98.8409 37.4075 104.361 45.061 107.107 53.8421C109.853 62.6233 109.676 72.0582 106.603 80.7303C103.53 89.4024 97.7268 96.8436 90.0647 101.937C82.4025 107.03 73.2949 109.5 64.1094 108.976C54.9239 108.452 46.1562 104.963 39.1227 99.0315C32.0892 93.1004 27.1696 85.0476 25.1024 76.0824L32.2783 74.4279C33.9874 81.8402 38.0549 88.498 43.8701 93.4018C49.6852 98.3055 56.9342 101.191 64.5287 101.624C72.1231 102.057 79.6531 100.015 85.9881 95.8037C92.323 91.5928 97.1211 85.4406 99.6618 78.2706C102.202 71.1007 102.349 63.3 100.078 56.0399C97.8083 48.7798 93.2442 42.452 87.0715 38.0067C80.8988 33.5614 73.4506 31.2384 65.8453 31.3866C58.2399 31.5348 50.8879 34.1461 44.893 38.8285L40.36 33.0249Z" fill="white"/>
<path d="M66.7058 17.2058C53.5776 17.2058 40.9871 22.421 31.704 31.704C22.421 40.9871 17.2058 53.5776 17.2058 66.7058C17.2058 79.834 22.421 92.4245 31.704 101.708C40.9871 110.991 53.5776 116.206 66.7058 116.206L66.7058 111.833C54.7374 111.833 43.2591 107.078 34.7961 98.6155C26.3332 90.1525 21.5787 78.6743 21.5787 66.7058C21.5787 54.7374 26.3332 43.2591 34.7961 34.7961C43.2591 26.3332 54.7374 21.5787 66.7058 21.5787L66.7058 17.2058Z" fill="white"/>
<path d="M76.8488 115.155C87.5143 112.923 97.1449 107.233 104.247 98.9687C111.349 90.7046 115.526 80.3279 116.13 69.448L112.223 69.2313C111.667 79.2512 107.821 88.8078 101.28 96.4188C94.7391 104.03 85.8696 109.27 76.0472 111.326L76.8488 115.155Z" fill="white"/>
<line x1="127.354" y1="7.98707" x2="128.38" y2="126.983" stroke="black" stroke-width="3"/>
<path d="M153.369 69V33.3636H167.011C169.587 33.3636 171.727 33.7696 173.432 34.5817C175.149 35.3821 176.431 36.4783 177.278 37.8704C178.136 39.2624 178.565 40.8401 178.565 42.6033C178.565 44.0534 178.287 45.2946 177.73 46.3271C177.173 47.3479 176.425 48.1773 175.486 48.8153C174.546 49.4534 173.496 49.9116 172.336 50.19V50.538C173.6 50.6076 174.813 50.9962 175.973 51.7038C177.144 52.3999 178.101 53.3859 178.844 54.6619C179.586 55.938 179.957 57.4808 179.957 59.2905C179.957 61.1349 179.511 62.7938 178.618 64.267C177.724 65.7287 176.379 66.8829 174.581 67.7298C172.783 68.5766 170.521 69 167.794 69H153.369ZM159.825 63.6058H166.768C169.111 63.6058 170.799 63.1592 171.831 62.266C172.875 61.3612 173.397 60.2011 173.397 58.7859C173.397 57.7302 173.136 56.779 172.614 55.9322C172.092 55.0737 171.35 54.4009 170.387 53.9137C169.424 53.4149 168.276 53.1655 166.942 53.1655H159.825V63.6058ZM159.825 48.5195H166.211C167.325 48.5195 168.328 48.3165 169.221 47.9105C170.115 47.4929 170.816 46.9071 171.327 46.1531C171.849 45.3874 172.11 44.4826 172.11 43.4386C172.11 42.0581 171.623 40.9213 170.648 40.0281C169.685 39.1348 168.253 38.6882 166.35 38.6882H159.825V48.5195ZM191.594 33.3636V69H185.295V33.3636H191.594ZM215.107 57.7592V42.2727H221.406V69H215.298V64.2496H215.02C214.416 65.7461 213.425 66.9699 212.044 67.9212C210.675 68.8724 208.987 69.348 206.981 69.348C205.229 69.348 203.68 68.9594 202.335 68.1822C201.001 67.3933 199.957 66.2507 199.203 64.7543C198.448 63.2462 198.071 61.425 198.071 59.2905V42.2727H204.37V58.3161C204.37 60.0097 204.834 61.3554 205.763 62.353C206.691 63.3506 207.909 63.8494 209.417 63.8494C210.345 63.8494 211.244 63.6232 212.114 63.1708C212.984 62.7184 213.697 62.0456 214.254 61.1523C214.822 60.2475 215.107 59.1165 215.107 57.7592ZM239.715 69.522C237.036 69.522 234.721 68.9652 232.773 67.8516C230.835 66.7263 229.345 65.1371 228.301 63.0838C227.257 61.0189 226.735 58.5887 226.735 55.793C226.735 53.0437 227.257 50.6308 228.301 48.5543C229.356 46.4663 230.829 44.8422 232.72 43.6822C234.611 42.5105 236.833 41.9247 239.385 41.9247C241.032 41.9247 242.586 42.1915 244.048 42.7251C245.521 43.2472 246.821 44.0592 247.946 45.1612C249.083 46.2633 249.976 47.6669 250.626 49.3722C251.275 51.0658 251.6 53.0843 251.6 55.4276V57.359H229.693V53.1133H245.562C245.55 51.9068 245.289 50.8338 244.779 49.8942C244.269 48.9429 243.555 48.1947 242.639 47.6495C241.734 47.1043 240.678 46.8317 239.472 46.8317C238.184 46.8317 237.053 47.1449 236.079 47.7713C235.104 48.3861 234.344 49.1982 233.799 50.2074C233.266 51.205 232.993 52.3013 232.981 53.4961V57.2024C232.981 58.7569 233.266 60.0909 233.834 61.2045C234.402 62.3066 235.197 63.1534 236.218 63.745C237.239 64.325 238.434 64.6151 239.802 64.6151C240.719 64.6151 241.548 64.4875 242.291 64.2322C243.033 63.9654 243.677 63.5768 244.222 63.0664C244.767 62.556 245.179 61.9238 245.458 61.1697L251.339 61.831C250.968 63.3854 250.26 64.7427 249.216 65.9027C248.184 67.0511 246.861 67.9444 245.249 68.5824C243.636 69.2088 241.792 69.522 239.715 69.522ZM288.728 43.1602C288.566 41.6405 287.882 40.4573 286.675 39.6104C285.48 38.7636 283.926 38.3402 282.012 38.3402C280.666 38.3402 279.512 38.5432 278.549 38.9492C277.586 39.3552 276.85 39.9062 276.339 40.6023C275.829 41.2983 275.568 42.0929 275.556 42.9862C275.556 43.7286 275.724 44.3724 276.061 44.9176C276.409 45.4628 276.879 45.9268 277.47 46.3097C278.062 46.6809 278.717 46.9941 279.437 47.2493C280.156 47.5045 280.881 47.7191 281.612 47.8931L284.953 48.7283C286.298 49.0415 287.592 49.465 288.833 49.9986C290.086 50.5322 291.205 51.205 292.191 52.017C293.189 52.8291 293.978 53.8093 294.558 54.9577C295.138 56.1062 295.428 57.4518 295.428 58.9947C295.428 61.0827 294.894 62.9214 293.827 64.5107C292.76 66.0883 291.217 67.3237 289.198 68.217C287.191 69.0986 284.761 69.5394 281.907 69.5394C279.135 69.5394 276.728 69.1102 274.686 68.2518C272.656 67.3933 271.067 66.1405 269.918 64.4933C268.782 62.846 268.167 60.8391 268.074 58.4727H274.425C274.518 59.7139 274.901 60.7463 275.574 61.57C276.246 62.3936 277.122 63.0084 278.201 63.4144C279.292 63.8204 280.51 64.0234 281.855 64.0234C283.259 64.0234 284.488 63.8146 285.544 63.397C286.611 62.9678 287.447 62.3762 288.05 61.6222C288.653 60.8565 288.96 59.9633 288.972 58.9425C288.96 58.0144 288.688 57.2488 288.154 56.6456C287.621 56.0308 286.872 55.5204 285.91 55.1143C284.958 54.6967 283.845 54.3255 282.569 54.0007L278.514 52.9567C275.579 52.2027 273.259 51.06 271.554 49.5288C269.86 47.9859 269.014 45.9384 269.014 43.3864C269.014 41.2867 269.582 39.448 270.719 37.8704C271.867 36.2927 273.428 35.0689 275.4 34.1989C277.372 33.3172 279.605 32.8764 282.099 32.8764C284.628 32.8764 286.843 33.3172 288.746 34.1989C290.66 35.0689 292.162 36.2811 293.253 37.8356C294.343 39.3784 294.906 41.1533 294.94 43.1602H288.728ZM300.904 79.0227V42.2727H307.099V46.6925H307.464C307.789 46.0428 308.248 45.3526 308.839 44.6218C309.431 43.8794 310.231 43.2472 311.24 42.7251C312.25 42.1915 313.537 41.9247 315.103 41.9247C317.168 41.9247 319.03 42.4525 320.689 43.5082C322.359 44.5522 323.682 46.1009 324.656 48.1541C325.642 50.1958 326.135 52.7015 326.135 55.6712C326.135 58.6061 325.654 61.1001 324.691 63.1534C323.728 65.2067 322.417 66.7727 320.759 67.8516C319.1 68.9304 317.22 69.4698 315.121 69.4698C313.589 69.4698 312.319 69.2146 311.31 68.7042C310.301 68.1938 309.489 67.579 308.874 66.8597C308.271 66.1289 307.801 65.4387 307.464 64.7891H307.203V79.0227H300.904ZM307.082 55.6364C307.082 57.3648 307.325 58.8787 307.812 60.1779C308.311 61.4772 309.025 62.4922 309.953 63.223C310.892 63.9422 312.029 64.3018 313.363 64.3018C314.755 64.3018 315.921 63.9306 316.861 63.1882C317.8 62.4342 318.508 61.4076 318.984 60.1083C319.471 58.7975 319.714 57.3068 319.714 55.6364C319.714 53.9775 319.477 52.5043 319.001 51.2166C318.525 49.929 317.818 48.9197 316.878 48.1889C315.939 47.4581 314.767 47.0927 313.363 47.0927C312.018 47.0927 310.875 47.4465 309.935 48.1541C308.996 48.8617 308.282 49.8536 307.795 51.1296C307.319 52.4057 307.082 53.9079 307.082 55.6364ZM339.221 69.5394C337.527 69.5394 336.001 69.2378 334.644 68.6346C333.299 68.0198 332.231 67.1149 331.442 65.9201C330.665 64.7253 330.277 63.252 330.277 61.5004C330.277 59.9923 330.555 58.7453 331.112 57.7592C331.669 56.7732 332.429 55.9844 333.391 55.3928C334.354 54.8011 335.439 54.3545 336.645 54.0529C337.863 53.7397 339.122 53.5135 340.421 53.3743C341.987 53.2119 343.257 53.0669 344.232 52.9393C345.206 52.8001 345.914 52.5913 346.355 52.3129C346.807 52.0228 347.033 51.5762 347.033 50.973V50.8686C347.033 49.5578 346.645 48.5427 345.868 47.8235C345.09 47.1043 343.971 46.7447 342.509 46.7447C340.966 46.7447 339.743 47.0811 338.838 47.7539C337.944 48.4267 337.341 49.2214 337.028 50.1378L331.147 49.3026C331.611 47.6785 332.376 46.3213 333.444 45.2308C334.511 44.1288 335.816 43.3052 337.359 42.7599C338.902 42.2031 340.607 41.9247 342.474 41.9247C343.762 41.9247 345.044 42.0755 346.32 42.3771C347.596 42.6787 348.762 43.1776 349.817 43.8736C350.873 44.558 351.72 45.4918 352.358 46.6751C353.008 47.8583 353.332 49.3374 353.332 51.1122V69H347.277V65.3285H347.068C346.685 66.0709 346.146 66.7669 345.45 67.4165C344.766 68.0546 343.901 68.5708 342.857 68.9652C341.825 69.348 340.613 69.5394 339.221 69.5394ZM340.856 64.9109C342.121 64.9109 343.217 64.6615 344.145 64.1626C345.073 63.6522 345.786 62.9794 346.285 62.1442C346.796 61.3089 347.051 60.3983 347.051 59.4123V56.2628C346.854 56.4252 346.517 56.576 346.042 56.7152C345.578 56.8544 345.056 56.9762 344.475 57.0806C343.895 57.185 343.321 57.2778 342.753 57.359C342.184 57.4402 341.691 57.5098 341.274 57.5678C340.334 57.6954 339.493 57.9042 338.751 58.1942C338.008 58.4843 337.422 58.8903 336.993 59.4123C336.564 59.9227 336.349 60.5839 336.349 61.396C336.349 62.556 336.773 63.4318 337.62 64.0234C338.467 64.6151 339.545 64.9109 340.856 64.9109ZM359.666 69V42.2727H365.774V46.7273H366.052C366.539 45.1844 367.375 43.9954 368.558 43.1602C369.753 42.3133 371.116 41.8899 372.647 41.8899C372.995 41.8899 373.384 41.9073 373.813 41.9421C374.254 41.9653 374.619 42.0059 374.909 42.0639V47.8583C374.642 47.7655 374.219 47.6843 373.639 47.6147C373.07 47.5335 372.519 47.4929 371.986 47.4929C370.837 47.4929 369.805 47.7423 368.888 48.2411C367.984 48.7283 367.27 49.407 366.748 50.277C366.226 51.147 365.965 52.1504 365.965 53.2873V69H359.666ZM379.094 69V42.2727H385.393V69H379.094ZM382.261 38.4794C381.263 38.4794 380.405 38.1488 379.686 37.4876C378.966 36.8147 378.607 36.0085 378.607 35.0689C378.607 34.1177 378.966 33.3114 379.686 32.6502C380.405 31.9774 381.263 31.641 382.261 31.641C383.27 31.641 384.128 31.9774 384.836 32.6502C385.555 33.3114 385.915 34.1177 385.915 35.0689C385.915 36.0085 385.555 36.8147 384.836 37.4876C384.128 38.1488 383.27 38.4794 382.261 38.4794ZM398.169 53.3395V69H391.87V42.2727H397.891V46.8143H398.204C398.819 45.3178 399.799 44.1288 401.145 43.2472C402.502 42.3655 404.178 41.9247 406.174 41.9247C408.018 41.9247 409.625 42.3191 410.994 43.108C412.374 43.8968 413.441 45.0394 414.195 46.5359C414.961 48.0323 415.338 49.8478 415.326 51.9822V69H409.027V52.9567C409.027 51.1702 408.563 49.7724 407.635 48.7631C406.719 47.7539 405.449 47.2493 403.824 47.2493C402.722 47.2493 401.742 47.4929 400.884 47.9801C400.037 48.4557 399.37 49.146 398.883 50.0508C398.407 50.9556 398.169 52.0518 398.169 53.3395ZM433.353 79.5795C431.091 79.5795 429.148 79.2721 427.524 78.6573C425.9 78.0541 424.595 77.2421 423.609 76.2212C422.623 75.2004 421.938 74.0694 421.556 72.8281L427.228 71.4535C427.483 71.9755 427.855 72.4917 428.342 73.0021C428.829 73.5241 429.485 73.9534 430.308 74.2898C431.143 74.6378 432.193 74.8118 433.458 74.8118C435.244 74.8118 436.723 74.3768 437.895 73.5067C439.066 72.6483 439.652 71.2331 439.652 69.261V64.1974H439.339C439.014 64.8471 438.539 65.5141 437.912 66.1985C437.297 66.8829 436.48 67.4571 435.459 67.9212C434.449 68.3852 433.179 68.6172 431.648 68.6172C429.595 68.6172 427.733 68.1358 426.062 67.1729C424.404 66.1985 423.081 64.7485 422.095 62.8228C421.121 60.8855 420.633 58.4611 420.633 55.5494C420.633 52.6145 421.121 50.1378 422.095 48.1193C423.081 46.0893 424.409 44.5522 426.08 43.5082C427.75 42.4525 429.612 41.9247 431.665 41.9247C433.231 41.9247 434.519 42.1915 435.528 42.7251C436.549 43.2472 437.361 43.8794 437.964 44.6218C438.568 45.3526 439.026 46.0428 439.339 46.6925H439.687V42.2727H445.899V69.435C445.899 71.7203 445.354 73.6112 444.263 75.1076C443.173 76.604 441.682 77.7235 439.791 78.4659C437.901 79.2083 435.755 79.5795 433.353 79.5795ZM433.405 63.6754C434.739 63.6754 435.876 63.3506 436.816 62.701C437.756 62.0514 438.469 61.1175 438.956 59.8995C439.443 58.6815 439.687 57.2198 439.687 55.5146C439.687 53.8325 439.443 52.3593 438.956 51.0948C438.481 49.8304 437.773 48.8501 436.833 48.1541C435.905 47.4465 434.763 47.0927 433.405 47.0927C432.002 47.0927 430.83 47.4581 429.891 48.1889C428.951 48.9197 428.243 49.9232 427.768 51.1992C427.292 52.4637 427.054 53.9021 427.054 55.5146C427.054 57.1502 427.292 58.5829 427.768 59.8125C428.255 61.0305 428.968 61.9818 429.908 62.6662C430.859 63.339 432.025 63.6754 433.405 63.6754Z" fill="white"/>
<path d="M152.062 88.7713V86.8182H165.698V88.7713H159.981V105H157.779V88.7713H152.062ZM170.907 96.7969V105H168.812V86.8182H170.907V93.4943H171.085C171.404 92.79 171.884 92.2307 172.523 91.8164C173.168 91.3962 174.026 91.1861 175.098 91.1861C176.027 91.1861 176.841 91.3725 177.539 91.7454C178.237 92.1123 178.779 92.6776 179.164 93.4411C179.554 94.1986 179.75 95.1634 179.75 96.3352V105H177.654V96.4773C177.654 95.3942 177.373 94.5567 176.811 93.9648C176.255 93.3671 175.482 93.0682 174.494 93.0682C173.807 93.0682 173.192 93.2132 172.647 93.5032C172.109 93.7932 171.683 94.2164 171.369 94.7727C171.061 95.3291 170.907 96.0038 170.907 96.7969ZM183.583 105V91.3636H185.678V105H183.583ZM184.648 89.0909C184.24 89.0909 183.887 88.9518 183.592 88.6737C183.302 88.3955 183.157 88.0611 183.157 87.6705C183.157 87.2798 183.302 86.9454 183.592 86.6673C183.887 86.3891 184.24 86.25 184.648 86.25C185.056 86.25 185.406 86.3891 185.696 86.6673C185.992 86.9454 186.139 87.2798 186.139 87.6705C186.139 88.0611 185.992 88.3955 185.696 88.6737C185.406 88.9518 185.056 89.0909 184.648 89.0909ZM191.61 96.7969V105H189.515V91.3636H191.539V93.4943H191.717C192.037 92.8018 192.522 92.2455 193.173 91.8253C193.824 91.3991 194.664 91.1861 195.694 91.1861C196.618 91.1861 197.425 91.3755 198.118 91.7543C198.81 92.1271 199.349 92.6953 199.734 93.4588C200.118 94.2164 200.311 95.1752 200.311 96.3352V105H198.216V96.4773C198.216 95.406 197.937 94.5715 197.381 93.9737C196.825 93.37 196.061 93.0682 195.091 93.0682C194.422 93.0682 193.824 93.2132 193.297 93.5032C192.776 93.7932 192.365 94.2164 192.063 94.7727C191.761 95.3291 191.61 96.0038 191.61 96.7969ZM206.092 100.028L206.057 97.4361H206.483L212.449 91.3636H215.041L208.685 97.7912H208.507L206.092 100.028ZM204.139 105V86.8182H206.234V105H204.139ZM212.804 105L207.477 98.2528L208.969 96.7969L215.467 105H212.804ZM229.918 105.284C228.782 105.284 227.779 104.997 226.909 104.423C226.039 103.843 225.358 103.026 224.867 101.973C224.376 100.913 224.13 99.6615 224.13 98.2173C224.13 96.785 224.376 95.5421 224.867 94.4886C225.358 93.4351 226.042 92.6213 226.918 92.0472C227.794 91.4731 228.806 91.1861 229.954 91.1861C230.842 91.1861 231.543 91.334 232.058 91.63C232.579 91.92 232.975 92.2514 233.248 92.6243C233.526 92.9912 233.742 93.2931 233.896 93.5298H234.073V86.8182H236.168V105H234.144V102.905H233.896C233.742 103.153 233.523 103.467 233.239 103.846C232.955 104.219 232.549 104.553 232.022 104.849C231.496 105.139 230.794 105.284 229.918 105.284ZM230.202 103.402C231.043 103.402 231.753 103.183 232.333 102.745C232.913 102.301 233.354 101.689 233.656 100.907C233.958 100.12 234.109 99.2116 234.109 98.1818C234.109 97.1638 233.961 96.2731 233.665 95.5096C233.369 94.7402 232.931 94.1424 232.351 93.7163C231.771 93.2842 231.055 93.0682 230.202 93.0682C229.315 93.0682 228.575 93.296 227.983 93.7518C227.397 94.2016 226.956 94.8142 226.66 95.5895C226.37 96.3589 226.225 97.223 226.225 98.1818C226.225 99.1525 226.373 100.034 226.669 100.827C226.971 101.615 227.415 102.242 228.001 102.71C228.593 103.171 229.326 103.402 230.202 103.402ZM240.297 105V91.3636H242.392V105H240.297ZM241.362 89.0909C240.953 89.0909 240.601 88.9518 240.305 88.6737C240.015 88.3955 239.87 88.0611 239.87 87.6705C239.87 87.2798 240.015 86.9454 240.305 86.6673C240.601 86.3891 240.953 86.25 241.362 86.25C241.77 86.25 242.119 86.3891 242.409 86.6673C242.705 86.9454 242.853 87.2798 242.853 87.6705C242.853 88.0611 242.705 88.3955 242.409 88.6737C242.119 88.9518 241.77 89.0909 241.362 89.0909ZM252.302 91.3636V93.1392H244.951V91.3636H252.302ZM247.152 105V89.4815C247.152 88.7003 247.336 88.0492 247.703 87.5284C248.07 87.0076 248.546 86.6169 249.132 86.3565C249.718 86.0961 250.337 85.9659 250.988 85.9659C251.503 85.9659 251.923 86.0073 252.248 86.0902C252.574 86.1731 252.816 86.25 252.976 86.321L252.373 88.1321C252.266 88.0966 252.118 88.0522 251.929 87.9989C251.745 87.9457 251.503 87.919 251.201 87.919C250.508 87.919 250.008 88.0936 249.7 88.4428C249.399 88.792 249.248 89.304 249.248 89.9787V105H247.152ZM261.31 91.3636V93.1392H253.96V91.3636H261.31ZM256.161 105V89.4815C256.161 88.7003 256.345 88.0492 256.712 87.5284C257.079 87.0076 257.555 86.6169 258.141 86.3565C258.727 86.0961 259.345 85.9659 259.996 85.9659C260.511 85.9659 260.932 86.0073 261.257 86.0902C261.583 86.1731 261.825 86.25 261.985 86.321L261.381 88.1321C261.275 88.0966 261.127 88.0522 260.938 87.9989C260.754 87.9457 260.511 87.919 260.21 87.919C259.517 87.919 259.017 88.0936 258.709 88.4428C258.407 88.792 258.256 89.304 258.256 89.9787V105H256.161ZM264.247 105V91.3636H266.271V93.4233H266.413C266.661 92.7486 267.111 92.2011 267.762 91.7809C268.413 91.3607 269.147 91.1506 269.964 91.1506C270.118 91.1506 270.31 91.1535 270.541 91.1594C270.772 91.1654 270.947 91.1742 271.065 91.1861V93.3168C270.994 93.299 270.831 93.2724 270.577 93.2369C270.328 93.1954 270.065 93.1747 269.786 93.1747C269.124 93.1747 268.532 93.3138 268.011 93.592C267.496 93.8642 267.088 94.243 266.786 94.7283C266.49 95.2077 266.342 95.7552 266.342 96.3707V105H264.247ZM278.851 105.284C277.537 105.284 276.403 104.994 275.451 104.414C274.504 103.828 273.773 103.011 273.258 101.964C272.749 100.91 272.494 99.6851 272.494 98.2884C272.494 96.8916 272.749 95.6605 273.258 94.5952C273.773 93.5239 274.489 92.6894 275.406 92.0916C276.329 91.4879 277.407 91.1861 278.638 91.1861C279.348 91.1861 280.049 91.3045 280.742 91.5412C281.434 91.7779 282.065 92.1626 282.633 92.6953C283.201 93.2221 283.654 93.9205 283.991 94.7905C284.328 95.6605 284.497 96.7318 284.497 98.0043V98.892H273.986V97.081H282.366C282.366 96.3116 282.213 95.625 281.905 95.0213C281.603 94.4176 281.171 93.9412 280.609 93.592C280.052 93.2428 279.395 93.0682 278.638 93.0682C277.803 93.0682 277.081 93.2753 276.472 93.6896C275.868 94.098 275.403 94.6307 275.078 95.2876C274.752 95.9446 274.589 96.6489 274.589 97.4006V98.608C274.589 99.6378 274.767 100.511 275.122 101.227C275.483 101.937 275.983 102.479 276.622 102.852C277.262 103.219 278.004 103.402 278.851 103.402C279.401 103.402 279.898 103.325 280.342 103.171C280.792 103.011 281.18 102.775 281.505 102.461C281.831 102.141 282.082 101.745 282.26 101.271L284.284 101.839C284.071 102.526 283.713 103.13 283.21 103.651C282.707 104.165 282.085 104.568 281.345 104.858C280.606 105.142 279.774 105.284 278.851 105.284ZM289.779 96.7969V105H287.684V91.3636H289.708V93.4943H289.886C290.206 92.8018 290.691 92.2455 291.342 91.8253C291.993 91.3991 292.833 91.1861 293.863 91.1861C294.786 91.1861 295.594 91.3755 296.287 91.7543C296.979 92.1271 297.518 92.6953 297.903 93.4588C298.287 94.2164 298.48 95.1752 298.48 96.3352V105H296.384V96.4773C296.384 95.406 296.106 94.5715 295.55 93.9737C294.994 93.37 294.23 93.0682 293.259 93.0682C292.591 93.0682 291.993 93.2132 291.466 93.5032C290.945 93.7932 290.534 94.2164 290.232 94.7727C289.93 95.3291 289.779 96.0038 289.779 96.7969ZM308.239 91.3636V93.1392H301.172V91.3636H308.239ZM303.232 88.0966H305.327V101.094C305.327 101.686 305.413 102.129 305.584 102.425C305.762 102.715 305.987 102.911 306.259 103.011C306.537 103.106 306.83 103.153 307.138 103.153C307.369 103.153 307.558 103.142 307.706 103.118C307.854 103.088 307.972 103.065 308.061 103.047L308.487 104.929C308.345 104.982 308.147 105.036 307.892 105.089C307.638 105.148 307.315 105.178 306.925 105.178C306.333 105.178 305.753 105.05 305.185 104.796C304.622 104.541 304.155 104.154 303.782 103.633C303.415 103.112 303.232 102.455 303.232 101.662V88.0966ZM324.352 91.3636V93.1392H317.285V91.3636H324.352ZM319.345 88.0966H321.44V101.094C321.44 101.686 321.526 102.129 321.697 102.425C321.875 102.715 322.1 102.911 322.372 103.011C322.65 103.106 322.943 103.153 323.251 103.153C323.482 103.153 323.671 103.142 323.819 103.118C323.967 103.088 324.086 103.065 324.174 103.047L324.6 104.929C324.458 104.982 324.26 105.036 324.006 105.089C323.751 105.148 323.429 105.178 323.038 105.178C322.446 105.178 321.866 105.05 321.298 104.796C320.736 104.541 320.268 104.154 319.895 103.633C319.528 103.112 319.345 102.455 319.345 101.662V88.0966ZM332.897 105.284C331.666 105.284 330.586 104.991 329.656 104.405C328.733 103.819 328.011 103 327.49 101.946C326.975 100.893 326.718 99.6615 326.718 98.2528C326.718 96.8324 326.975 95.5924 327.49 94.533C328.011 93.4736 328.733 92.6509 329.656 92.065C330.586 91.479 331.666 91.1861 332.897 91.1861C334.128 91.1861 335.205 91.479 336.128 92.065C337.058 92.6509 337.78 93.4736 338.295 94.533C338.815 95.5924 339.076 96.8324 339.076 98.2528C339.076 99.6615 338.815 100.893 338.295 101.946C337.78 103 337.058 103.819 336.128 104.405C335.205 104.991 334.128 105.284 332.897 105.284ZM332.897 103.402C333.832 103.402 334.601 103.162 335.205 102.683C335.809 102.203 336.256 101.573 336.546 100.792C336.836 100.011 336.981 99.1643 336.981 98.2528C336.981 97.3414 336.836 96.4921 336.546 95.7049C336.256 94.9177 335.809 94.2815 335.205 93.7962C334.601 93.3108 333.832 93.0682 332.897 93.0682C331.962 93.0682 331.192 93.3108 330.589 93.7962C329.985 94.2815 329.538 94.9177 329.248 95.7049C328.958 96.4921 328.813 97.3414 328.813 98.2528C328.813 99.1643 328.958 100.011 329.248 100.792C329.538 101.573 329.985 102.203 330.589 102.683C331.192 103.162 331.962 103.402 332.897 103.402ZM349.589 105V86.8182H351.685V93.5298H351.862C352.016 93.2931 352.229 92.9912 352.501 92.6243C352.78 92.2514 353.176 91.92 353.691 91.63C354.212 91.334 354.916 91.1861 355.804 91.1861C356.952 91.1861 357.964 91.4731 358.84 92.0472C359.716 92.6213 360.4 93.4351 360.891 94.4886C361.382 95.5421 361.628 96.785 361.628 98.2173C361.628 99.6615 361.382 100.913 360.891 101.973C360.4 103.026 359.719 103.843 358.849 104.423C357.979 104.997 356.976 105.284 355.839 105.284C354.963 105.284 354.262 105.139 353.735 104.849C353.209 104.553 352.803 104.219 352.519 103.846C352.235 103.467 352.016 103.153 351.862 102.905H351.614V105H349.589ZM351.649 98.1818C351.649 99.2116 351.8 100.12 352.102 100.907C352.404 101.689 352.845 102.301 353.425 102.745C354.005 103.183 354.715 103.402 355.555 103.402C356.431 103.402 357.162 103.171 357.748 102.71C358.34 102.242 358.784 101.615 359.08 100.827C359.382 100.034 359.533 99.1525 359.533 98.1818C359.533 97.223 359.385 96.3589 359.089 95.5895C358.799 94.8142 358.358 94.2016 357.766 93.7518C357.18 93.296 356.443 93.0682 355.555 93.0682C354.703 93.0682 353.987 93.2842 353.407 93.7163C352.827 94.1424 352.389 94.7402 352.093 95.5096C351.797 96.2731 351.649 97.1638 351.649 98.1818ZM370.55 105.284C369.236 105.284 368.103 104.994 367.15 104.414C366.203 103.828 365.472 103.011 364.957 101.964C364.448 100.91 364.193 99.6851 364.193 98.2884C364.193 96.8916 364.448 95.6605 364.957 94.5952C365.472 93.5239 366.188 92.6894 367.105 92.0916C368.029 91.4879 369.106 91.1861 370.337 91.1861C371.047 91.1861 371.748 91.3045 372.441 91.5412C373.133 91.7779 373.764 92.1626 374.332 92.6953C374.9 93.2221 375.353 93.9205 375.69 94.7905C376.028 95.6605 376.196 96.7318 376.196 98.0043V98.892H365.685V97.081H374.066C374.066 96.3116 373.912 95.625 373.604 95.0213C373.302 94.4176 372.87 93.9412 372.308 93.592C371.751 93.2428 371.094 93.0682 370.337 93.0682C369.502 93.0682 368.78 93.2753 368.171 93.6896C367.567 94.098 367.102 94.6307 366.777 95.2876C366.451 95.9446 366.289 96.6489 366.289 97.4006V98.608C366.289 99.6378 366.466 100.511 366.821 101.227C367.182 101.937 367.682 102.479 368.322 102.852C368.961 103.219 369.704 103.402 370.55 103.402C371.1 103.402 371.598 103.325 372.041 103.171C372.491 103.011 372.879 102.775 373.204 102.461C373.53 102.141 373.782 101.745 373.959 101.271L375.983 101.839C375.77 102.526 375.412 103.13 374.909 103.651C374.406 104.165 373.784 104.568 373.045 104.858C372.305 105.142 371.473 105.284 370.55 105.284ZM392.345 91.3636V93.1392H385.278V91.3636H392.345ZM387.338 88.0966H389.433V101.094C389.433 101.686 389.519 102.129 389.691 102.425C389.868 102.715 390.093 102.911 390.365 103.011C390.643 103.106 390.936 103.153 391.244 103.153C391.475 103.153 391.664 103.142 391.812 103.118C391.96 103.088 392.079 103.065 392.168 103.047L392.594 104.929C392.452 104.982 392.253 105.036 391.999 105.089C391.744 105.148 391.422 105.178 391.031 105.178C390.439 105.178 389.859 105.05 389.291 104.796C388.729 104.541 388.261 104.154 387.888 103.633C387.521 103.112 387.338 102.455 387.338 101.662V88.0966ZM397.885 96.7969V105H395.79V86.8182H397.885V93.4943H398.062C398.382 92.79 398.861 92.2307 399.501 91.8164C400.146 91.3962 401.004 91.1861 402.075 91.1861C403.004 91.1861 403.818 91.3725 404.517 91.7454C405.215 92.1123 405.757 92.6776 406.141 93.4411C406.532 94.1986 406.727 95.1634 406.727 96.3352V105H404.632V96.4773C404.632 95.3942 404.351 94.5567 403.789 93.9648C403.232 93.3671 402.46 93.0682 401.472 93.0682C400.785 93.0682 400.169 93.2132 399.625 93.5032C399.086 93.7932 398.66 94.2164 398.347 94.7727C398.039 95.3291 397.885 96.0038 397.885 96.7969ZM416.278 105.284C414.964 105.284 413.83 104.994 412.877 104.414C411.93 103.828 411.199 103.011 410.684 101.964C410.175 100.91 409.921 99.6851 409.921 98.2884C409.921 96.8916 410.175 95.6605 410.684 94.5952C411.199 93.5239 411.916 92.6894 412.833 92.0916C413.756 91.4879 414.833 91.1861 416.064 91.1861C416.775 91.1861 417.476 91.3045 418.169 91.5412C418.861 91.7779 419.491 92.1626 420.059 92.6953C420.628 93.2221 421.08 93.9205 421.418 94.7905C421.755 95.6605 421.924 96.7318 421.924 98.0043V98.892H411.412V97.081H419.793C419.793 96.3116 419.639 95.625 419.331 95.0213C419.03 94.4176 418.598 93.9412 418.035 93.592C417.479 93.2428 416.822 93.0682 416.064 93.0682C415.23 93.0682 414.508 93.2753 413.898 93.6896C413.295 94.098 412.83 94.6307 412.504 95.2876C412.179 95.9446 412.016 96.6489 412.016 97.4006V98.608C412.016 99.6378 412.194 100.511 412.549 101.227C412.91 101.937 413.41 102.479 414.049 102.852C414.688 103.219 415.431 103.402 416.278 103.402C416.828 103.402 417.325 103.325 417.769 103.171C418.219 103.011 418.606 102.775 418.932 102.461C419.258 102.141 419.509 101.745 419.687 101.271L421.711 101.839C421.498 102.526 421.14 103.13 420.637 103.651C420.133 104.165 419.512 104.568 418.772 104.858C418.032 105.142 417.201 105.284 416.278 105.284ZM432.426 105V86.8182H434.521V93.5298H434.699C434.853 93.2931 435.066 92.9912 435.338 92.6243C435.616 92.2514 436.013 91.92 436.528 91.63C437.049 91.334 437.753 91.1861 438.641 91.1861C439.789 91.1861 440.801 91.4731 441.677 92.0472C442.553 92.6213 443.237 93.4351 443.728 94.4886C444.219 95.5421 444.465 96.785 444.465 98.2173C444.465 99.6615 444.219 100.913 443.728 101.973C443.237 103.026 442.556 103.843 441.686 104.423C440.816 104.997 439.813 105.284 438.676 105.284C437.8 105.284 437.099 105.139 436.572 104.849C436.046 104.553 435.64 104.219 435.356 103.846C435.072 103.467 434.853 103.153 434.699 102.905H434.45V105H432.426ZM434.486 98.1818C434.486 99.2116 434.637 100.12 434.939 100.907C435.241 101.689 435.682 102.301 436.262 102.745C436.842 103.183 437.552 103.402 438.392 103.402C439.268 103.402 439.999 103.171 440.585 102.71C441.177 102.242 441.621 101.615 441.917 100.827C442.219 100.034 442.369 99.1525 442.369 98.1818C442.369 97.223 442.222 96.3589 441.926 95.5895C441.636 94.8142 441.195 94.2016 440.603 93.7518C440.017 93.296 439.28 93.0682 438.392 93.0682C437.54 93.0682 436.824 93.2842 436.244 93.7163C435.664 94.1424 435.226 94.7402 434.93 95.5096C434.634 96.2731 434.486 97.1638 434.486 98.1818ZM453.387 105.284C452.073 105.284 450.94 104.994 449.987 104.414C449.04 103.828 448.309 103.011 447.794 101.964C447.285 100.91 447.03 99.6851 447.03 98.2884C447.03 96.8916 447.285 95.6605 447.794 94.5952C448.309 93.5239 449.025 92.6894 449.942 92.0916C450.866 91.4879 451.943 91.1861 453.174 91.1861C453.884 91.1861 454.585 91.3045 455.278 91.5412C455.97 91.7779 456.601 92.1626 457.169 92.6953C457.737 93.2221 458.19 93.9205 458.527 94.7905C458.865 95.6605 459.033 96.7318 459.033 98.0043V98.892H448.522V97.081H456.903C456.903 96.3116 456.749 95.625 456.441 95.0213C456.139 94.4176 455.707 93.9412 455.145 93.592C454.588 93.2428 453.931 93.0682 453.174 93.0682C452.339 93.0682 451.617 93.2753 451.008 93.6896C450.404 94.098 449.939 94.6307 449.614 95.2876C449.288 95.9446 449.126 96.6489 449.126 97.4006V98.608C449.126 99.6378 449.303 100.511 449.658 101.227C450.019 101.937 450.519 102.479 451.159 102.852C451.798 103.219 452.541 103.402 453.387 103.402C453.937 103.402 454.434 103.325 454.878 103.171C455.328 103.011 455.716 102.775 456.041 102.461C456.367 102.141 456.618 101.745 456.796 101.271L458.82 101.839C458.607 102.526 458.249 103.13 457.746 103.651C457.243 104.165 456.621 104.568 455.882 104.858C455.142 105.142 454.31 105.284 453.387 105.284ZM471.879 94.4176L469.997 94.9503C469.879 94.6366 469.704 94.3318 469.474 94.0359C469.249 93.734 468.941 93.4854 468.55 93.2901C468.16 93.0948 467.66 92.9972 467.05 92.9972C466.215 92.9972 465.52 93.1895 464.964 93.5742C464.413 93.953 464.138 94.4354 464.138 95.0213C464.138 95.5421 464.327 95.9535 464.706 96.2553C465.085 96.5572 465.677 96.8087 466.482 97.0099L468.506 97.5071C469.725 97.803 470.634 98.2558 471.231 98.8654C471.829 99.4691 472.128 100.247 472.128 101.2C472.128 101.982 471.903 102.68 471.453 103.295C471.009 103.911 470.388 104.396 469.589 104.751C468.79 105.107 467.861 105.284 466.801 105.284C465.41 105.284 464.259 104.982 463.348 104.379C462.436 103.775 461.859 102.893 461.617 101.733L463.605 101.236C463.795 101.97 464.153 102.52 464.68 102.887C465.212 103.254 465.908 103.438 466.766 103.438C467.742 103.438 468.518 103.23 469.092 102.816C469.672 102.396 469.962 101.893 469.962 101.307C469.962 100.833 469.796 100.437 469.465 100.117C469.133 99.7917 468.624 99.549 467.938 99.3892L465.665 98.8565C464.416 98.5606 463.499 98.1019 462.913 97.4805C462.333 96.8531 462.043 96.0689 462.043 95.1278C462.043 94.3584 462.259 93.6778 462.691 93.0859C463.129 92.4941 463.724 92.0295 464.475 91.6921C465.233 91.3548 466.091 91.1861 467.05 91.1861C468.399 91.1861 469.459 91.482 470.228 92.0739C471.003 92.6657 471.554 93.447 471.879 94.4176ZM481.212 91.3636V93.1392H474.146V91.3636H481.212ZM476.205 88.0966H478.3V101.094C478.3 101.686 478.386 102.129 478.558 102.425C478.735 102.715 478.96 102.911 479.233 103.011C479.511 103.106 479.804 103.153 480.111 103.153C480.342 103.153 480.532 103.142 480.68 103.118C480.828 103.088 480.946 103.065 481.035 103.047L481.461 104.929C481.319 104.982 481.121 105.036 480.866 105.089C480.612 105.148 480.289 105.178 479.898 105.178C479.306 105.178 478.726 105.05 478.158 104.796C477.596 104.541 477.128 104.154 476.756 103.633C476.389 103.112 476.205 102.455 476.205 101.662V88.0966Z" fill="white"/>
</svg>
